<mxfile host="app.diagrams.net" modified="2021-03-26T15:38:03.226Z" agent="5.0 (Macintosh; Intel Mac OS X 11_0_1) AppleWebKit/537.36 (KHTML, like Gecko) Chrome/89.0.4389.90 Safari/537.36" etag="iiXhUb-JorEVQnTPEhrX" version="14.4.4" type="github">
  <diagram id="kKwHiMIrFEdmWUaHS6Eg" name="Page-1">
    <mxGraphModel dx="1426" dy="785" grid="1" gridSize="10" guides="1" tooltips="1" connect="1" arrows="1" fold="1" page="1" pageScale="1" pageWidth="850" pageHeight="1100" math="0" shadow="0">
      <root>
        <mxCell id="0" />
        <mxCell id="1" parent="0" />
        <mxCell id="8ute-4yg6YOnoJJfrcmb-46" value="" style="rounded=0;whiteSpace=wrap;html=1;fillColor=none;fontSize=16;" vertex="1" parent="1">
          <mxGeometry x="820" y="1960" width="640" height="160" as="geometry" />
        </mxCell>
        <mxCell id="8ute-4yg6YOnoJJfrcmb-11" value="" style="strokeWidth=2;html=1;shape=mxgraph.flowchart.database;whiteSpace=wrap;" vertex="1" parent="1">
          <mxGeometry x="487" y="1600" width="60" height="60" as="geometry" />
        </mxCell>
        <mxCell id="8ute-4yg6YOnoJJfrcmb-10" value="" style="strokeWidth=2;html=1;shape=mxgraph.flowchart.database;whiteSpace=wrap;" vertex="1" parent="1">
          <mxGeometry x="290.97" y="1600" width="60" height="60" as="geometry" />
        </mxCell>
        <mxCell id="8ute-4yg6YOnoJJfrcmb-9" value="" style="strokeWidth=2;html=1;shape=mxgraph.flowchart.database;whiteSpace=wrap;" vertex="1" parent="1">
          <mxGeometry x="88.03" y="1600" width="60" height="60" as="geometry" />
        </mxCell>
        <mxCell id="TRfXmzB1axwGLPm74W_P-10" value="" style="edgeStyle=none;rounded=0;orthogonalLoop=1;jettySize=auto;html=1;" parent="1" source="TRfXmzB1axwGLPm74W_P-1" target="TRfXmzB1axwGLPm74W_P-9" edge="1">
          <mxGeometry relative="1" as="geometry" />
        </mxCell>
        <mxCell id="TRfXmzB1axwGLPm74W_P-13" value="" style="edgeStyle=none;rounded=0;orthogonalLoop=1;jettySize=auto;html=1;" parent="1" source="TRfXmzB1axwGLPm74W_P-1" target="TRfXmzB1axwGLPm74W_P-12" edge="1">
          <mxGeometry relative="1" as="geometry" />
        </mxCell>
        <mxCell id="TRfXmzB1axwGLPm74W_P-1" value="Filters&lt;br&gt;- daterange&lt;br&gt;- companyIds" style="rounded=0;whiteSpace=wrap;html=1;" parent="1" vertex="1">
          <mxGeometry x="220" y="210" width="130" height="80" as="geometry" />
        </mxCell>
        <mxCell id="TRfXmzB1axwGLPm74W_P-3" value="API: Fetch initiatives" style="rounded=0;whiteSpace=wrap;html=1;" parent="1" vertex="1">
          <mxGeometry x="225" y="440" width="120" height="40" as="geometry" />
        </mxCell>
        <mxCell id="TRfXmzB1axwGLPm74W_P-8" style="edgeStyle=none;rounded=0;orthogonalLoop=1;jettySize=auto;html=1;entryX=0.7;entryY=0.017;entryDx=0;entryDy=0;entryPerimeter=0;" parent="1" source="TRfXmzB1axwGLPm74W_P-5" target="TRfXmzB1axwGLPm74W_P-1" edge="1">
          <mxGeometry relative="1" as="geometry" />
        </mxCell>
        <mxCell id="TRfXmzB1axwGLPm74W_P-5" value="Daterange Filter" style="rounded=0;whiteSpace=wrap;html=1;" parent="1" vertex="1">
          <mxGeometry x="400" y="40" width="120" height="60" as="geometry" />
        </mxCell>
        <mxCell id="TRfXmzB1axwGLPm74W_P-7" style="rounded=0;orthogonalLoop=1;jettySize=auto;html=1;entryX=0.25;entryY=0;entryDx=0;entryDy=0;" parent="1" source="TRfXmzB1axwGLPm74W_P-6" target="TRfXmzB1axwGLPm74W_P-1" edge="1">
          <mxGeometry relative="1" as="geometry" />
        </mxCell>
        <mxCell id="TRfXmzB1axwGLPm74W_P-6" value="CompanyId Filter" style="rounded=0;whiteSpace=wrap;html=1;" parent="1" vertex="1">
          <mxGeometry x="80" y="40" width="120" height="60" as="geometry" />
        </mxCell>
        <mxCell id="TRfXmzB1axwGLPm74W_P-11" style="edgeStyle=none;rounded=0;orthogonalLoop=1;jettySize=auto;html=1;entryX=0.5;entryY=0;entryDx=0;entryDy=0;" parent="1" source="TRfXmzB1axwGLPm74W_P-9" target="TRfXmzB1axwGLPm74W_P-3" edge="1">
          <mxGeometry relative="1" as="geometry" />
        </mxCell>
        <mxCell id="TRfXmzB1axwGLPm74W_P-9" value="filterData" style="rounded=0;whiteSpace=wrap;html=1;" parent="1" vertex="1">
          <mxGeometry x="220" y="340" width="130" height="40" as="geometry" />
        </mxCell>
        <mxCell id="TRfXmzB1axwGLPm74W_P-15" value="" style="edgeStyle=none;rounded=0;orthogonalLoop=1;jettySize=auto;html=1;" parent="1" source="TRfXmzB1axwGLPm74W_P-12" target="TRfXmzB1axwGLPm74W_P-14" edge="1">
          <mxGeometry relative="1" as="geometry" />
        </mxCell>
        <mxCell id="TRfXmzB1axwGLPm74W_P-12" value="fashboardCache" style="rounded=0;whiteSpace=wrap;html=1;" parent="1" vertex="1">
          <mxGeometry x="425" y="340" width="130" height="40" as="geometry" />
        </mxCell>
        <mxCell id="TRfXmzB1axwGLPm74W_P-14" value="udate URL and localStorage" style="rounded=0;whiteSpace=wrap;html=1;" parent="1" vertex="1">
          <mxGeometry x="425" y="440" width="130" height="60" as="geometry" />
        </mxCell>
        <mxCell id="TRfXmzB1axwGLPm74W_P-28" value="HAS_A" style="edgeStyle=none;rounded=0;orthogonalLoop=1;jettySize=auto;html=1;entryX=0;entryY=0.25;entryDx=0;entryDy=0;exitX=1;exitY=0.25;exitDx=0;exitDy=0;" parent="1" source="TRfXmzB1axwGLPm74W_P-23" target="TRfXmzB1axwGLPm74W_P-26" edge="1">
          <mxGeometry relative="1" as="geometry" />
        </mxCell>
        <mxCell id="TRfXmzB1axwGLPm74W_P-23" value="" style="rounded=0;whiteSpace=wrap;html=1;" parent="1" vertex="1">
          <mxGeometry x="101.03" y="560" width="142.94" height="280" as="geometry" />
        </mxCell>
        <mxCell id="TRfXmzB1axwGLPm74W_P-24" value="Selection" style="text;html=1;strokeColor=none;fillColor=none;align=center;verticalAlign=middle;whiteSpace=wrap;rounded=0;" parent="1" vertex="1">
          <mxGeometry x="152.5" y="560" width="40" height="20" as="geometry" />
        </mxCell>
        <mxCell id="TRfXmzB1axwGLPm74W_P-29" value="props" style="edgeStyle=none;rounded=0;orthogonalLoop=1;jettySize=auto;html=1;entryX=0;entryY=0.5;entryDx=0;entryDy=0;dashed=1;" parent="1" source="TRfXmzB1axwGLPm74W_P-25" target="TRfXmzB1axwGLPm74W_P-26" edge="1">
          <mxGeometry relative="1" as="geometry" />
        </mxCell>
        <mxCell id="TRfXmzB1axwGLPm74W_P-46" value="url params" style="edgeStyle=none;rounded=0;orthogonalLoop=1;jettySize=auto;html=1;startArrow=none;startFill=0;" parent="1" source="TRfXmzB1axwGLPm74W_P-25" target="TRfXmzB1axwGLPm74W_P-45" edge="1">
          <mxGeometry relative="1" as="geometry" />
        </mxCell>
        <mxCell id="TRfXmzB1axwGLPm74W_P-25" value="State&lt;br&gt;- companyIds&lt;br&gt;- dateRange" style="rounded=0;whiteSpace=wrap;html=1;" parent="1" vertex="1">
          <mxGeometry x="112.5" y="615" width="120" height="60" as="geometry" />
        </mxCell>
        <mxCell id="TRfXmzB1axwGLPm74W_P-47" value="HAS_A" style="edgeStyle=none;rounded=0;orthogonalLoop=1;jettySize=auto;html=1;entryX=0;entryY=0.25;entryDx=0;entryDy=0;startArrow=none;startFill=0;exitX=0.997;exitY=0.125;exitDx=0;exitDy=0;exitPerimeter=0;" parent="1" source="TRfXmzB1axwGLPm74W_P-26" target="TRfXmzB1axwGLPm74W_P-31" edge="1">
          <mxGeometry relative="1" as="geometry" />
        </mxCell>
        <mxCell id="TRfXmzB1axwGLPm74W_P-48" value="HAS_A" style="edgeStyle=none;rounded=0;orthogonalLoop=1;jettySize=auto;html=1;entryX=0;entryY=0.75;entryDx=0;entryDy=0;startArrow=none;startFill=0;exitX=1.013;exitY=0.923;exitDx=0;exitDy=0;exitPerimeter=0;" parent="1" source="TRfXmzB1axwGLPm74W_P-26" target="TRfXmzB1axwGLPm74W_P-32" edge="1">
          <mxGeometry relative="1" as="geometry" />
        </mxCell>
        <mxCell id="TRfXmzB1axwGLPm74W_P-26" value="" style="rounded=0;whiteSpace=wrap;html=1;" parent="1" vertex="1">
          <mxGeometry x="400" y="560" width="170" height="280" as="geometry" />
        </mxCell>
        <mxCell id="TRfXmzB1axwGLPm74W_P-27" value="Tray" style="text;html=1;strokeColor=none;fillColor=none;align=center;verticalAlign=middle;whiteSpace=wrap;rounded=0;" parent="1" vertex="1">
          <mxGeometry x="465" y="570" width="40" height="20" as="geometry" />
        </mxCell>
        <mxCell id="TRfXmzB1axwGLPm74W_P-30" value="@submit" style="endArrow=classic;html=1;dashed=1;entryX=0.75;entryY=1;entryDx=0;entryDy=0;exitX=0;exitY=0.75;exitDx=0;exitDy=0;" parent="1" source="TRfXmzB1axwGLPm74W_P-26" target="TRfXmzB1axwGLPm74W_P-25" edge="1">
          <mxGeometry width="50" height="50" relative="1" as="geometry">
            <mxPoint x="360" y="640" as="sourcePoint" />
            <mxPoint x="410" y="590" as="targetPoint" />
          </mxGeometry>
        </mxCell>
        <mxCell id="TRfXmzB1axwGLPm74W_P-31" value="Date Range Filter" style="rounded=0;whiteSpace=wrap;html=1;" parent="1" vertex="1">
          <mxGeometry x="720" y="560" width="120" height="60" as="geometry" />
        </mxCell>
        <mxCell id="TRfXmzB1axwGLPm74W_P-32" value="Company Id Filter" style="rounded=0;whiteSpace=wrap;html=1;" parent="1" vertex="1">
          <mxGeometry x="720" y="680" width="120" height="60" as="geometry" />
        </mxCell>
        <mxCell id="TRfXmzB1axwGLPm74W_P-33" value="State&lt;br&gt;- tmpCompanyIds&lt;br&gt;- tmpDateRange" style="rounded=0;whiteSpace=wrap;html=1;" parent="1" vertex="1">
          <mxGeometry x="430" y="600" width="120" height="60" as="geometry" />
        </mxCell>
        <mxCell id="TRfXmzB1axwGLPm74W_P-35" style="edgeStyle=none;rounded=0;orthogonalLoop=1;jettySize=auto;html=1;entryX=0;entryY=0.5;entryDx=0;entryDy=0;dashed=1;startArrow=classic;startFill=1;exitX=0.995;exitY=0.583;exitDx=0;exitDy=0;exitPerimeter=0;" parent="1" source="TRfXmzB1axwGLPm74W_P-34" target="TRfXmzB1axwGLPm74W_P-31" edge="1">
          <mxGeometry relative="1" as="geometry" />
        </mxCell>
        <mxCell id="TRfXmzB1axwGLPm74W_P-43" value="v-model" style="edgeLabel;html=1;align=center;verticalAlign=middle;resizable=0;points=[];" parent="TRfXmzB1axwGLPm74W_P-35" vertex="1" connectable="0">
          <mxGeometry x="-0.0894" relative="1" as="geometry">
            <mxPoint as="offset" />
          </mxGeometry>
        </mxCell>
        <mxCell id="TRfXmzB1axwGLPm74W_P-36" style="edgeStyle=none;rounded=0;orthogonalLoop=1;jettySize=auto;html=1;entryX=0;entryY=0.5;entryDx=0;entryDy=0;dashed=1;startArrow=classic;startFill=1;" parent="1" source="TRfXmzB1axwGLPm74W_P-34" target="TRfXmzB1axwGLPm74W_P-32" edge="1">
          <mxGeometry relative="1" as="geometry">
            <Array as="points">
              <mxPoint x="550" y="790" />
            </Array>
          </mxGeometry>
        </mxCell>
        <mxCell id="TRfXmzB1axwGLPm74W_P-44" value="v-model" style="edgeLabel;html=1;align=center;verticalAlign=middle;resizable=0;points=[];" parent="TRfXmzB1axwGLPm74W_P-36" vertex="1" connectable="0">
          <mxGeometry x="-0.0207" y="1" relative="1" as="geometry">
            <mxPoint as="offset" />
          </mxGeometry>
        </mxCell>
        <mxCell id="TRfXmzB1axwGLPm74W_P-34" value="Computed&lt;br&gt;&lt;br&gt;- currentCompanyIds&lt;br&gt;- currentDateRange" style="rounded=0;whiteSpace=wrap;html=1;" parent="1" vertex="1">
          <mxGeometry x="430" y="700" width="120" height="100" as="geometry" />
        </mxCell>
        <mxCell id="TRfXmzB1axwGLPm74W_P-37" value="&lt;span style=&quot;color: rgb(0 , 0 , 0) ; font-family: &amp;#34;helvetica&amp;#34; ; font-size: 12px ; font-style: normal ; font-weight: 400 ; letter-spacing: normal ; text-indent: 0px ; text-transform: none ; word-spacing: 0px ; background-color: rgb(248 , 249 , 250) ; display: inline ; float: none&quot;&gt;currentCompanyIds:&lt;br&gt;&lt;div style=&quot;text-align: left&quot;&gt;- getter: tmpCompanyIds || props.companyIds&lt;/div&gt;&lt;div style=&quot;text-align: left&quot;&gt;&lt;br&gt;&lt;/div&gt;&lt;div style=&quot;text-align: left&quot;&gt;- setter: save newVal to tmpCompanyIds&lt;/div&gt;&lt;div style=&quot;text-align: left&quot;&gt;&amp;nbsp; &amp;nbsp; &amp;nbsp; &amp;nbsp; &amp;nbsp; &amp;nbsp; &amp;nbsp; &amp;nbsp;IF new value is not equal to props.companyIds&lt;/div&gt;&lt;div style=&quot;text-align: left&quot;&gt;&amp;nbsp; &amp;nbsp; &amp;nbsp; &amp;nbsp; &amp;nbsp; &amp;nbsp; &amp;nbsp; &amp;nbsp;ELSE set&amp;nbsp;tmpCompanyIds to null&lt;/div&gt;&lt;span style=&quot;text-align: left&quot;&gt;&lt;br&gt;&lt;/span&gt;&lt;/span&gt;" style="text;html=1;strokeColor=none;fillColor=none;align=center;verticalAlign=middle;whiteSpace=wrap;rounded=0;" parent="1" vertex="1">
          <mxGeometry x="350" y="870" width="350" height="90" as="geometry" />
        </mxCell>
        <mxCell id="TRfXmzB1axwGLPm74W_P-41" value="" style="edgeStyle=none;rounded=0;orthogonalLoop=1;jettySize=auto;html=1;dashed=1;startArrow=none;startFill=0;" parent="1" source="TRfXmzB1axwGLPm74W_P-38" target="TRfXmzB1axwGLPm74W_P-40" edge="1">
          <mxGeometry relative="1" as="geometry" />
        </mxCell>
        <mxCell id="TRfXmzB1axwGLPm74W_P-38" value="props.companyIds" style="rounded=0;whiteSpace=wrap;html=1;" parent="1" vertex="1">
          <mxGeometry x="220" y="1010" width="120" height="60" as="geometry" />
        </mxCell>
        <mxCell id="TRfXmzB1axwGLPm74W_P-39" value="selectedCompanies" style="rounded=0;whiteSpace=wrap;html=1;" parent="1" vertex="1">
          <mxGeometry x="640" y="1010" width="120" height="60" as="geometry" />
        </mxCell>
        <mxCell id="TRfXmzB1axwGLPm74W_P-42" style="edgeStyle=none;rounded=0;orthogonalLoop=1;jettySize=auto;html=1;entryX=0;entryY=0.5;entryDx=0;entryDy=0;dashed=1;startArrow=none;startFill=0;" parent="1" source="TRfXmzB1axwGLPm74W_P-40" target="TRfXmzB1axwGLPm74W_P-39" edge="1">
          <mxGeometry relative="1" as="geometry" />
        </mxCell>
        <mxCell id="TRfXmzB1axwGLPm74W_P-40" value="check if we have company info" style="shape=parallelogram;perimeter=parallelogramPerimeter;whiteSpace=wrap;html=1;fixedSize=1;rounded=0;" parent="1" vertex="1">
          <mxGeometry x="420" y="1010" width="120" height="60" as="geometry" />
        </mxCell>
        <mxCell id="TRfXmzB1axwGLPm74W_P-45" value="Table" style="rounded=0;whiteSpace=wrap;html=1;" parent="1" vertex="1">
          <mxGeometry x="113" y="740" width="120" height="60" as="geometry" />
        </mxCell>
        <mxCell id="TRfXmzB1axwGLPm74W_P-51" value="companyIds: [c-01, c-02]&lt;br&gt;companyIds: []&lt;br&gt;&lt;strike&gt;companyIds: null&lt;br&gt;&lt;br&gt;&lt;br&gt;&lt;/strike&gt;" style="text;html=1;strokeColor=none;fillColor=none;align=center;verticalAlign=middle;whiteSpace=wrap;rounded=0;" parent="1" vertex="1">
          <mxGeometry x="80" y="900" width="247" height="60" as="geometry" />
        </mxCell>
        <mxCell id="8ute-4yg6YOnoJJfrcmb-17" style="edgeStyle=none;rounded=0;orthogonalLoop=1;jettySize=auto;html=1;entryX=0.17;entryY=1;entryDx=0;entryDy=0;entryPerimeter=0;startArrow=none;startFill=0;" edge="1" parent="1" source="8ute-4yg6YOnoJJfrcmb-5" target="8ute-4yg6YOnoJJfrcmb-16">
          <mxGeometry relative="1" as="geometry" />
        </mxCell>
        <mxCell id="8ute-4yg6YOnoJJfrcmb-5" value="Optimizer" style="ellipse;shape=cloud;whiteSpace=wrap;html=1;" vertex="1" parent="1">
          <mxGeometry x="127" y="1600" width="120" height="80" as="geometry" />
        </mxCell>
        <mxCell id="8ute-4yg6YOnoJJfrcmb-18" style="edgeStyle=none;rounded=0;orthogonalLoop=1;jettySize=auto;html=1;entryX=0.482;entryY=1.067;entryDx=0;entryDy=0;entryPerimeter=0;startArrow=none;startFill=0;" edge="1" parent="1" source="8ute-4yg6YOnoJJfrcmb-6" target="8ute-4yg6YOnoJJfrcmb-16">
          <mxGeometry relative="1" as="geometry" />
        </mxCell>
        <mxCell id="8ute-4yg6YOnoJJfrcmb-6" value="Pacing" style="ellipse;shape=cloud;whiteSpace=wrap;html=1;" vertex="1" parent="1">
          <mxGeometry x="327" y="1600" width="120" height="80" as="geometry" />
        </mxCell>
        <mxCell id="8ute-4yg6YOnoJJfrcmb-19" style="edgeStyle=none;rounded=0;orthogonalLoop=1;jettySize=auto;html=1;entryX=0.794;entryY=1.017;entryDx=0;entryDy=0;entryPerimeter=0;startArrow=none;startFill=0;" edge="1" parent="1" source="8ute-4yg6YOnoJJfrcmb-7" target="8ute-4yg6YOnoJJfrcmb-16">
          <mxGeometry relative="1" as="geometry" />
        </mxCell>
        <mxCell id="8ute-4yg6YOnoJJfrcmb-7" value="Reporting" style="ellipse;shape=cloud;whiteSpace=wrap;html=1;" vertex="1" parent="1">
          <mxGeometry x="527" y="1600" width="120" height="80" as="geometry" />
        </mxCell>
        <mxCell id="8ute-4yg6YOnoJJfrcmb-13" value="Optimizer&lt;br&gt;Engineers" style="outlineConnect=0;fontColor=#232F3E;gradientColor=none;strokeColor=#232F3E;fillColor=#ffffff;dashed=0;verticalLabelPosition=bottom;verticalAlign=top;align=center;html=1;fontSize=12;fontStyle=0;aspect=fixed;shape=mxgraph.aws4.resourceIcon;resIcon=mxgraph.aws4.users;" vertex="1" parent="1">
          <mxGeometry x="127" y="1720" width="60" height="60" as="geometry" />
        </mxCell>
        <mxCell id="8ute-4yg6YOnoJJfrcmb-14" value="Pacing&lt;br&gt;Engineers" style="outlineConnect=0;fontColor=#232F3E;gradientColor=none;strokeColor=#232F3E;fillColor=#ffffff;dashed=0;verticalLabelPosition=bottom;verticalAlign=top;align=center;html=1;fontSize=12;fontStyle=0;aspect=fixed;shape=mxgraph.aws4.resourceIcon;resIcon=mxgraph.aws4.users;" vertex="1" parent="1">
          <mxGeometry x="327" y="1720" width="60" height="60" as="geometry" />
        </mxCell>
        <mxCell id="8ute-4yg6YOnoJJfrcmb-15" value="Rerpoting&lt;br&gt;Engineers" style="outlineConnect=0;fontColor=#232F3E;gradientColor=none;strokeColor=#232F3E;fillColor=#ffffff;dashed=0;verticalLabelPosition=bottom;verticalAlign=top;align=center;html=1;fontSize=12;fontStyle=0;aspect=fixed;shape=mxgraph.aws4.resourceIcon;resIcon=mxgraph.aws4.users;" vertex="1" parent="1">
          <mxGeometry x="527" y="1720" width="60" height="60" as="geometry" />
        </mxCell>
        <mxCell id="8ute-4yg6YOnoJJfrcmb-16" value="Gateway" style="rounded=0;whiteSpace=wrap;html=1;" vertex="1" parent="1">
          <mxGeometry x="80" y="1460" width="637" height="60" as="geometry" />
        </mxCell>
        <mxCell id="8ute-4yg6YOnoJJfrcmb-20" value="Optimizer App" style="pointerEvents=1;shadow=0;dashed=0;html=1;strokeColor=none;fillColor=#434445;aspect=fixed;labelPosition=center;verticalLabelPosition=bottom;verticalAlign=top;align=center;outlineConnect=0;shape=mxgraph.vvd.web_browser;" vertex="1" parent="1">
          <mxGeometry x="134.32000000000005" y="1280" width="112.68" height="80" as="geometry" />
        </mxCell>
        <mxCell id="8ute-4yg6YOnoJJfrcmb-21" value="Pacing App" style="pointerEvents=1;shadow=0;dashed=0;html=1;strokeColor=none;fillColor=#434445;aspect=fixed;labelPosition=center;verticalLabelPosition=bottom;verticalAlign=top;align=center;outlineConnect=0;shape=mxgraph.vvd.web_browser;" vertex="1" parent="1">
          <mxGeometry x="334.32000000000005" y="1280" width="112.68" height="80" as="geometry" />
        </mxCell>
        <mxCell id="8ute-4yg6YOnoJJfrcmb-22" value="Reporting App" style="pointerEvents=1;shadow=0;dashed=0;html=1;strokeColor=none;fillColor=#434445;aspect=fixed;labelPosition=center;verticalLabelPosition=bottom;verticalAlign=top;align=center;outlineConnect=0;shape=mxgraph.vvd.web_browser;" vertex="1" parent="1">
          <mxGeometry x="534.32" y="1280" width="112.68" height="80" as="geometry" />
        </mxCell>
        <mxCell id="8ute-4yg6YOnoJJfrcmb-23" value="Optimizer" style="text;html=1;strokeColor=none;fillColor=none;align=center;verticalAlign=middle;whiteSpace=wrap;rounded=0;fontSize=16;fontStyle=1" vertex="1" parent="1">
          <mxGeometry x="137" y="1870" width="40" height="20" as="geometry" />
        </mxCell>
        <mxCell id="8ute-4yg6YOnoJJfrcmb-24" value="Pacing" style="text;html=1;strokeColor=none;fillColor=none;align=center;verticalAlign=middle;whiteSpace=wrap;rounded=0;fontSize=16;fontStyle=1" vertex="1" parent="1">
          <mxGeometry x="337" y="1870" width="40" height="20" as="geometry" />
        </mxCell>
        <mxCell id="8ute-4yg6YOnoJJfrcmb-25" value="Reporting" style="text;html=1;strokeColor=none;fillColor=none;align=center;verticalAlign=middle;whiteSpace=wrap;rounded=0;fontSize=16;fontStyle=1" vertex="1" parent="1">
          <mxGeometry x="537" y="1870" width="40" height="20" as="geometry" />
        </mxCell>
        <mxCell id="8ute-4yg6YOnoJJfrcmb-26" value="" style="endArrow=classic;html=1;" edge="1" parent="1" target="8ute-4yg6YOnoJJfrcmb-20">
          <mxGeometry width="50" height="50" relative="1" as="geometry">
            <mxPoint x="190.66000000000008" y="1460" as="sourcePoint" />
            <mxPoint x="240.66000000000008" y="1410" as="targetPoint" />
          </mxGeometry>
        </mxCell>
        <mxCell id="8ute-4yg6YOnoJJfrcmb-27" value="" style="endArrow=classic;html=1;exitX=0.482;exitY=-0.017;exitDx=0;exitDy=0;exitPerimeter=0;" edge="1" parent="1" target="8ute-4yg6YOnoJJfrcmb-21">
          <mxGeometry width="50" height="50" relative="1" as="geometry">
            <mxPoint x="390.6940000000003" y="1458.98" as="sourcePoint" />
            <mxPoint x="443.6600000000002" y="1520" as="targetPoint" />
          </mxGeometry>
        </mxCell>
        <mxCell id="8ute-4yg6YOnoJJfrcmb-28" value="" style="endArrow=classic;html=1;exitX=0.797;exitY=-0.067;exitDx=0;exitDy=0;exitPerimeter=0;" edge="1" parent="1" target="8ute-4yg6YOnoJJfrcmb-22">
          <mxGeometry width="50" height="50" relative="1" as="geometry">
            <mxPoint x="591.349" y="1455.98" as="sourcePoint" />
            <mxPoint x="593.6600000000002" y="1390" as="targetPoint" />
          </mxGeometry>
        </mxCell>
        <mxCell id="8ute-4yg6YOnoJJfrcmb-29" value="Platform UI" style="pointerEvents=1;shadow=0;dashed=0;html=1;strokeColor=none;fillColor=#434445;aspect=fixed;labelPosition=center;verticalLabelPosition=bottom;verticalAlign=top;align=center;outlineConnect=0;shape=mxgraph.vvd.web_browser;" vertex="1" parent="1">
          <mxGeometry x="820" y="1250" width="350" height="248.49" as="geometry" />
        </mxCell>
        <mxCell id="8ute-4yg6YOnoJJfrcmb-30" value="Optimizer" style="rounded=0;whiteSpace=wrap;html=1;fontSize=16;fillColor=none;" vertex="1" parent="1">
          <mxGeometry x="840" y="1330" width="120" height="60" as="geometry" />
        </mxCell>
        <mxCell id="8ute-4yg6YOnoJJfrcmb-31" value="Pacing" style="rounded=0;whiteSpace=wrap;html=1;fontSize=16;fillColor=none;" vertex="1" parent="1">
          <mxGeometry x="850" y="1370" width="120" height="60" as="geometry" />
        </mxCell>
        <mxCell id="8ute-4yg6YOnoJJfrcmb-32" value="Reporting" style="rounded=0;whiteSpace=wrap;html=1;fontSize=16;fillColor=none;" vertex="1" parent="1">
          <mxGeometry x="867" y="1410" width="120" height="60" as="geometry" />
        </mxCell>
        <mxCell id="8ute-4yg6YOnoJJfrcmb-34" value="" style="rounded=0;whiteSpace=wrap;html=1;fillColor=none;fontSize=16;" vertex="1" parent="1">
          <mxGeometry x="80" y="1250" width="640" height="160" as="geometry" />
        </mxCell>
        <mxCell id="8ute-4yg6YOnoJJfrcmb-35" value="Platform UI v2.0" style="pointerEvents=1;shadow=0;dashed=0;html=1;strokeColor=none;fillColor=#434445;aspect=fixed;labelPosition=center;verticalLabelPosition=bottom;verticalAlign=top;align=center;outlineConnect=0;shape=mxgraph.vvd.web_browser;" vertex="1" parent="1">
          <mxGeometry x="820" y="1641.51" width="350" height="248.49" as="geometry" />
        </mxCell>
        <mxCell id="8ute-4yg6YOnoJJfrcmb-36" value="Optimizer v1.1" style="rounded=0;whiteSpace=wrap;html=1;fontSize=16;fillColor=none;" vertex="1" parent="1">
          <mxGeometry x="840" y="1721.51" width="120" height="60" as="geometry" />
        </mxCell>
        <mxCell id="8ute-4yg6YOnoJJfrcmb-37" value="Pacing v0.3" style="rounded=0;whiteSpace=wrap;html=1;fontSize=16;fillColor=none;" vertex="1" parent="1">
          <mxGeometry x="850" y="1761.51" width="120" height="60" as="geometry" />
        </mxCell>
        <mxCell id="8ute-4yg6YOnoJJfrcmb-38" value="Reporting v0.9" style="rounded=0;whiteSpace=wrap;html=1;fontSize=16;fillColor=none;" vertex="1" parent="1">
          <mxGeometry x="867" y="1801.51" width="120" height="60" as="geometry" />
        </mxCell>
        <mxCell id="8ute-4yg6YOnoJJfrcmb-39" value="Platform UI &lt;font color=&quot;#ff0000&quot;&gt;v2.1&lt;/font&gt;" style="pointerEvents=1;shadow=0;dashed=0;html=1;strokeColor=none;fillColor=#434445;aspect=fixed;labelPosition=center;verticalLabelPosition=bottom;verticalAlign=top;align=center;outlineConnect=0;shape=mxgraph.vvd.web_browser;" vertex="1" parent="1">
          <mxGeometry x="1240" y="1641.51" width="350" height="248.49" as="geometry" />
        </mxCell>
        <mxCell id="8ute-4yg6YOnoJJfrcmb-40" value="Optimizer &lt;font color=&quot;#ff0000&quot;&gt;v1.2&lt;/font&gt;" style="rounded=0;whiteSpace=wrap;html=1;fontSize=16;fillColor=none;" vertex="1" parent="1">
          <mxGeometry x="1260" y="1721.51" width="120" height="60" as="geometry" />
        </mxCell>
        <mxCell id="8ute-4yg6YOnoJJfrcmb-41" value="Pacing v0.3" style="rounded=0;whiteSpace=wrap;html=1;fontSize=16;fillColor=none;" vertex="1" parent="1">
          <mxGeometry x="1270" y="1761.51" width="120" height="60" as="geometry" />
        </mxCell>
        <mxCell id="8ute-4yg6YOnoJJfrcmb-42" value="Reporting v0.9" style="rounded=0;whiteSpace=wrap;html=1;fontSize=16;fillColor=none;" vertex="1" parent="1">
          <mxGeometry x="1287" y="1801.51" width="120" height="60" as="geometry" />
        </mxCell>
        <mxCell id="8ute-4yg6YOnoJJfrcmb-43" value="Optimizer App v1.1" style="pointerEvents=1;shadow=0;dashed=0;html=1;strokeColor=none;fillColor=#434445;aspect=fixed;labelPosition=center;verticalLabelPosition=bottom;verticalAlign=top;align=center;outlineConnect=0;shape=mxgraph.vvd.web_browser;" vertex="1" parent="1">
          <mxGeometry x="874.32" y="1990" width="112.68" height="80" as="geometry" />
        </mxCell>
        <mxCell id="8ute-4yg6YOnoJJfrcmb-44" value="Pacing App v0.3" style="pointerEvents=1;shadow=0;dashed=0;html=1;strokeColor=none;fillColor=#434445;aspect=fixed;labelPosition=center;verticalLabelPosition=bottom;verticalAlign=top;align=center;outlineConnect=0;shape=mxgraph.vvd.web_browser;" vertex="1" parent="1">
          <mxGeometry x="1074.3200000000002" y="1990" width="112.68" height="80" as="geometry" />
        </mxCell>
        <mxCell id="8ute-4yg6YOnoJJfrcmb-45" value="Reporting App v0.9" style="pointerEvents=1;shadow=0;dashed=0;html=1;strokeColor=none;fillColor=#434445;aspect=fixed;labelPosition=center;verticalLabelPosition=bottom;verticalAlign=top;align=center;outlineConnect=0;shape=mxgraph.vvd.web_browser;" vertex="1" parent="1">
          <mxGeometry x="1274.3200000000002" y="1990" width="112.68" height="80" as="geometry" />
        </mxCell>
        <mxCell id="8ute-4yg6YOnoJJfrcmb-51" value="" style="rounded=0;whiteSpace=wrap;html=1;fillColor=none;fontSize=16;" vertex="1" parent="1">
          <mxGeometry x="820" y="2170" width="640" height="160" as="geometry" />
        </mxCell>
        <mxCell id="8ute-4yg6YOnoJJfrcmb-52" value="Optimizer App &lt;font color=&quot;#ff0000&quot;&gt;v1.2&lt;/font&gt;" style="pointerEvents=1;shadow=0;dashed=0;html=1;strokeColor=none;fillColor=#434445;aspect=fixed;labelPosition=center;verticalLabelPosition=bottom;verticalAlign=top;align=center;outlineConnect=0;shape=mxgraph.vvd.web_browser;" vertex="1" parent="1">
          <mxGeometry x="874.32" y="2200" width="112.68" height="80" as="geometry" />
        </mxCell>
        <mxCell id="8ute-4yg6YOnoJJfrcmb-53" value="Pacing App v0.3" style="pointerEvents=1;shadow=0;dashed=0;html=1;strokeColor=none;fillColor=#434445;aspect=fixed;labelPosition=center;verticalLabelPosition=bottom;verticalAlign=top;align=center;outlineConnect=0;shape=mxgraph.vvd.web_browser;" vertex="1" parent="1">
          <mxGeometry x="1074.3200000000002" y="2200" width="112.68" height="80" as="geometry" />
        </mxCell>
        <mxCell id="8ute-4yg6YOnoJJfrcmb-54" value="Reporting App v0.9" style="pointerEvents=1;shadow=0;dashed=0;html=1;strokeColor=none;fillColor=#434445;aspect=fixed;labelPosition=center;verticalLabelPosition=bottom;verticalAlign=top;align=center;outlineConnect=0;shape=mxgraph.vvd.web_browser;" vertex="1" parent="1">
          <mxGeometry x="1274.3200000000002" y="2200" width="112.68" height="80" as="geometry" />
        </mxCell>
        <mxCell id="8ute-4yg6YOnoJJfrcmb-65" style="edgeStyle=none;rounded=0;orthogonalLoop=1;jettySize=auto;html=1;startArrow=none;startFill=0;fontSize=16;" edge="1" parent="1" source="8ute-4yg6YOnoJJfrcmb-55" target="8ute-4yg6YOnoJJfrcmb-59">
          <mxGeometry relative="1" as="geometry" />
        </mxCell>
        <mxCell id="8ute-4yg6YOnoJJfrcmb-55" value="Pacing UI" style="verticalLabelPosition=bottom;html=1;verticalAlign=top;align=center;strokeColor=none;shape=mxgraph.azure.git_repository;fontSize=16;fillColor=#999999;" vertex="1" parent="1">
          <mxGeometry x="162" y="2400" width="50" height="50" as="geometry" />
        </mxCell>
        <mxCell id="8ute-4yg6YOnoJJfrcmb-66" style="edgeStyle=none;rounded=0;orthogonalLoop=1;jettySize=auto;html=1;entryX=0;entryY=0.5;entryDx=0;entryDy=0;entryPerimeter=0;startArrow=none;startFill=0;fontSize=16;" edge="1" parent="1" source="8ute-4yg6YOnoJJfrcmb-56" target="8ute-4yg6YOnoJJfrcmb-59">
          <mxGeometry relative="1" as="geometry" />
        </mxCell>
        <mxCell id="8ute-4yg6YOnoJJfrcmb-56" value="Reporting UI" style="verticalLabelPosition=bottom;html=1;verticalAlign=top;align=center;strokeColor=none;shape=mxgraph.azure.git_repository;fontSize=16;fillColor=#999999;" vertex="1" parent="1">
          <mxGeometry x="162" y="2575" width="50" height="50" as="geometry" />
        </mxCell>
        <mxCell id="8ute-4yg6YOnoJJfrcmb-67" style="edgeStyle=none;rounded=0;orthogonalLoop=1;jettySize=auto;html=1;startArrow=none;startFill=0;fontSize=16;" edge="1" parent="1" source="8ute-4yg6YOnoJJfrcmb-58" target="8ute-4yg6YOnoJJfrcmb-59">
          <mxGeometry relative="1" as="geometry" />
        </mxCell>
        <mxCell id="8ute-4yg6YOnoJJfrcmb-58" value="Optimizer UI" style="verticalLabelPosition=bottom;html=1;verticalAlign=top;align=center;strokeColor=none;shape=mxgraph.azure.git_repository;fontSize=16;fillColor=#999999;" vertex="1" parent="1">
          <mxGeometry x="162" y="2720" width="50" height="50" as="geometry" />
        </mxCell>
        <mxCell id="8ute-4yg6YOnoJJfrcmb-59" value="Platform UI" style="verticalLabelPosition=bottom;html=1;verticalAlign=top;align=center;strokeColor=none;shape=mxgraph.azure.git_repository;fontSize=16;fillColor=#999999;" vertex="1" parent="1">
          <mxGeometry x="400" y="2520" width="160" height="160" as="geometry" />
        </mxCell>
        <mxCell id="8ute-4yg6YOnoJJfrcmb-60" value="Platform UI" style="pointerEvents=1;shadow=0;dashed=0;html=1;strokeColor=none;fillColor=#434445;aspect=fixed;labelPosition=center;verticalLabelPosition=bottom;verticalAlign=top;align=center;outlineConnect=0;shape=mxgraph.vvd.web_browser;" vertex="1" parent="1">
          <mxGeometry x="725" y="2490" width="350" height="248.49" as="geometry" />
        </mxCell>
        <mxCell id="8ute-4yg6YOnoJJfrcmb-61" value="Optimizer" style="rounded=0;whiteSpace=wrap;html=1;fontSize=16;fillColor=none;" vertex="1" parent="1">
          <mxGeometry x="745" y="2570" width="120" height="60" as="geometry" />
        </mxCell>
        <mxCell id="8ute-4yg6YOnoJJfrcmb-62" value="Pacing" style="rounded=0;whiteSpace=wrap;html=1;fontSize=16;fillColor=none;" vertex="1" parent="1">
          <mxGeometry x="755" y="2610" width="120" height="60" as="geometry" />
        </mxCell>
        <mxCell id="8ute-4yg6YOnoJJfrcmb-63" value="Reporting" style="rounded=0;whiteSpace=wrap;html=1;fontSize=16;fillColor=none;" vertex="1" parent="1">
          <mxGeometry x="772" y="2650" width="120" height="60" as="geometry" />
        </mxCell>
        <mxCell id="8ute-4yg6YOnoJJfrcmb-68" value="output" style="shape=flexArrow;endArrow=classic;html=1;fontSize=16;" edge="1" parent="1">
          <mxGeometry x="-0.1111" y="20" width="50" height="50" relative="1" as="geometry">
            <mxPoint x="600" y="2599.5" as="sourcePoint" />
            <mxPoint x="690" y="2599.5" as="targetPoint" />
            <mxPoint y="1" as="offset" />
          </mxGeometry>
        </mxCell>
        <mxCell id="8ute-4yg6YOnoJJfrcmb-69" value="" style="shape=image;html=1;verticalAlign=top;verticalLabelPosition=bottom;labelBackgroundColor=#ffffff;imageAspect=0;aspect=fixed;image=https://cdn4.iconfinder.com/data/icons/logos-brands-5/24/jenkins-128.png;fillColor=#999999;fontSize=16;" vertex="1" parent="1">
          <mxGeometry x="101.03" y="2400" width="50" height="50" as="geometry" />
        </mxCell>
        <mxCell id="8ute-4yg6YOnoJJfrcmb-72" value="" style="shape=image;html=1;verticalAlign=top;verticalLabelPosition=bottom;labelBackgroundColor=#ffffff;imageAspect=0;aspect=fixed;image=https://cdn4.iconfinder.com/data/icons/logos-brands-5/24/jenkins-128.png;fillColor=#999999;fontSize=16;" vertex="1" parent="1">
          <mxGeometry x="400" y="2400" width="120" height="120" as="geometry" />
        </mxCell>
        <mxCell id="8ute-4yg6YOnoJJfrcmb-73" value="" style="shape=image;html=1;verticalAlign=top;verticalLabelPosition=bottom;labelBackgroundColor=#ffffff;imageAspect=0;aspect=fixed;image=https://cdn4.iconfinder.com/data/icons/logos-brands-5/24/jenkins-128.png;fillColor=#999999;fontSize=16;" vertex="1" parent="1">
          <mxGeometry x="102.5" y="2575" width="50" height="50" as="geometry" />
        </mxCell>
        <mxCell id="8ute-4yg6YOnoJJfrcmb-74" value="" style="shape=image;html=1;verticalAlign=top;verticalLabelPosition=bottom;labelBackgroundColor=#ffffff;imageAspect=0;aspect=fixed;image=https://cdn4.iconfinder.com/data/icons/logos-brands-5/24/jenkins-128.png;fillColor=#999999;fontSize=16;" vertex="1" parent="1">
          <mxGeometry x="98.03" y="2720" width="50" height="50" as="geometry" />
        </mxCell>
        <mxCell id="8ute-4yg6YOnoJJfrcmb-91" value="Pacing UI" style="verticalLabelPosition=bottom;html=1;verticalAlign=top;align=center;strokeColor=none;shape=mxgraph.azure.git_repository;fontSize=16;fillColor=#999999;" vertex="1" parent="1">
          <mxGeometry x="187.99" y="3190" width="50" height="50" as="geometry" />
        </mxCell>
        <mxCell id="8ute-4yg6YOnoJJfrcmb-92" value="Reporting UI" style="verticalLabelPosition=bottom;html=1;verticalAlign=top;align=center;strokeColor=none;shape=mxgraph.azure.git_repository;fontSize=16;fillColor=#999999;" vertex="1" parent="1">
          <mxGeometry x="187.99" y="3310" width="50" height="50" as="geometry" />
        </mxCell>
        <mxCell id="8ute-4yg6YOnoJJfrcmb-93" value="Optimizer UI" style="verticalLabelPosition=bottom;html=1;verticalAlign=top;align=center;strokeColor=none;shape=mxgraph.azure.git_repository;fontSize=16;fillColor=#999999;" vertex="1" parent="1">
          <mxGeometry x="187.99" y="3430" width="50" height="50" as="geometry" />
        </mxCell>
        <mxCell id="8ute-4yg6YOnoJJfrcmb-94" value="" style="shape=image;html=1;verticalAlign=top;verticalLabelPosition=bottom;labelBackgroundColor=#ffffff;imageAspect=0;aspect=fixed;image=https://cdn4.iconfinder.com/data/icons/logos-brands-5/24/jenkins-128.png;fillColor=#999999;fontSize=16;" vertex="1" parent="1">
          <mxGeometry x="79.02" y="3190" width="70" height="70" as="geometry" />
        </mxCell>
        <mxCell id="8ute-4yg6YOnoJJfrcmb-97" value="" style="shape=image;html=1;verticalAlign=top;verticalLabelPosition=bottom;labelBackgroundColor=#ffffff;imageAspect=0;aspect=fixed;image=https://cdn4.iconfinder.com/data/icons/logos-brands-5/24/jenkins-128.png;fillColor=#999999;fontSize=16;" vertex="1" parent="1">
          <mxGeometry x="76.02" y="3310" width="70" height="70" as="geometry" />
        </mxCell>
        <mxCell id="8ute-4yg6YOnoJJfrcmb-98" value="" style="shape=image;html=1;verticalAlign=top;verticalLabelPosition=bottom;labelBackgroundColor=#ffffff;imageAspect=0;aspect=fixed;image=https://cdn4.iconfinder.com/data/icons/logos-brands-5/24/jenkins-128.png;fillColor=#999999;fontSize=16;" vertex="1" parent="1">
          <mxGeometry x="79.02" y="3430" width="70" height="70" as="geometry" />
        </mxCell>
        <mxCell id="8ute-4yg6YOnoJJfrcmb-103" style="edgeStyle=none;rounded=0;orthogonalLoop=1;jettySize=auto;html=1;startArrow=none;startFill=0;fontSize=16;entryX=0.008;entryY=0.074;entryDx=0;entryDy=0;entryPerimeter=0;" edge="1" parent="1" source="8ute-4yg6YOnoJJfrcmb-99" target="8ute-4yg6YOnoJJfrcmb-102">
          <mxGeometry relative="1" as="geometry">
            <mxPoint x="570" y="3110" as="targetPoint" />
          </mxGeometry>
        </mxCell>
        <mxCell id="8ute-4yg6YOnoJJfrcmb-99" value="Platform UI" style="verticalLabelPosition=bottom;html=1;verticalAlign=top;align=center;strokeColor=none;shape=mxgraph.azure.git_repository;fontSize=16;fillColor=#999999;" vertex="1" parent="1">
          <mxGeometry x="187.99" y="3080" width="50" height="50" as="geometry" />
        </mxCell>
        <mxCell id="8ute-4yg6YOnoJJfrcmb-100" value="" style="shape=image;html=1;verticalAlign=top;verticalLabelPosition=bottom;labelBackgroundColor=#ffffff;imageAspect=0;aspect=fixed;image=https://cdn4.iconfinder.com/data/icons/logos-brands-5/24/jenkins-128.png;fillColor=#999999;fontSize=16;" vertex="1" parent="1">
          <mxGeometry x="79.02" y="3080" width="70" height="70" as="geometry" />
        </mxCell>
        <mxCell id="8ute-4yg6YOnoJJfrcmb-102" value="Root Config" style="pointerEvents=1;shadow=0;dashed=0;html=1;strokeColor=none;fillColor=#434445;aspect=fixed;labelPosition=center;verticalLabelPosition=bottom;verticalAlign=top;align=center;outlineConnect=0;shape=mxgraph.vvd.web_browser;" vertex="1" parent="1">
          <mxGeometry x="593.51" y="3080" width="380.31" height="270" as="geometry" />
        </mxCell>
        <mxCell id="8ute-4yg6YOnoJJfrcmb-104" value="&lt;font color=&quot;#0000cc&quot;&gt;Pacing App&lt;/font&gt;" style="pointerEvents=1;shadow=0;dashed=0;html=1;strokeColor=none;aspect=fixed;labelPosition=center;verticalLabelPosition=bottom;verticalAlign=top;align=center;outlineConnect=0;shape=mxgraph.vvd.web_browser;fillColor=#0000CC;" vertex="1" parent="1">
          <mxGeometry x="618.23" y="3160" width="126.77" height="90" as="geometry" />
        </mxCell>
        <mxCell id="8ute-4yg6YOnoJJfrcmb-105" value="Reporting App" style="pointerEvents=1;shadow=0;dashed=0;html=1;strokeColor=none;fillColor=#434445;aspect=fixed;labelPosition=center;verticalLabelPosition=bottom;verticalAlign=top;align=center;outlineConnect=0;shape=mxgraph.vvd.web_browser;" vertex="1" parent="1">
          <mxGeometry x="362" y="3310" width="126.77" height="90" as="geometry" />
        </mxCell>
        <mxCell id="8ute-4yg6YOnoJJfrcmb-106" value="Optimizer App" style="pointerEvents=1;shadow=0;dashed=0;html=1;strokeColor=none;aspect=fixed;labelPosition=center;verticalLabelPosition=bottom;verticalAlign=top;align=center;outlineConnect=0;shape=mxgraph.vvd.web_browser;fillColor=#0000CC;" vertex="1" parent="1">
          <mxGeometry x="830" y="3160" width="126.77" height="90" as="geometry" />
        </mxCell>
        <mxCell id="8ute-4yg6YOnoJJfrcmb-108" style="edgeStyle=none;rounded=0;orthogonalLoop=1;jettySize=auto;html=1;startArrow=none;startFill=0;fontSize=16;" edge="1" parent="1" source="8ute-4yg6YOnoJJfrcmb-107" target="8ute-4yg6YOnoJJfrcmb-102">
          <mxGeometry relative="1" as="geometry" />
        </mxCell>
        <mxCell id="8ute-4yg6YOnoJJfrcmb-107" value="&lt;b style=&quot;font-size: 16px&quot;&gt;Open pacing&lt;br&gt;&amp;amp;&lt;br&gt;Do optimizer&lt;/b&gt;" style="outlineConnect=0;fontColor=#232F3E;gradientColor=none;fillColor=#232F3E;strokeColor=none;dashed=0;verticalLabelPosition=bottom;verticalAlign=top;align=center;html=1;fontSize=12;fontStyle=0;aspect=fixed;pointerEvents=1;shape=mxgraph.aws4.user;" vertex="1" parent="1">
          <mxGeometry x="745" y="2920" width="78" height="78" as="geometry" />
        </mxCell>
        <mxCell id="8ute-4yg6YOnoJJfrcmb-143" style="edgeStyle=none;rounded=0;orthogonalLoop=1;jettySize=auto;html=1;startArrow=none;startFill=0;fontSize=16;" edge="1" parent="1" source="8ute-4yg6YOnoJJfrcmb-126" target="8ute-4yg6YOnoJJfrcmb-136">
          <mxGeometry relative="1" as="geometry" />
        </mxCell>
        <mxCell id="8ute-4yg6YOnoJJfrcmb-126" value="Pacing UI" style="verticalLabelPosition=bottom;html=1;verticalAlign=top;align=center;strokeColor=none;shape=mxgraph.azure.git_repository;fontSize=16;fillColor=#999999;" vertex="1" parent="1">
          <mxGeometry x="310.98" y="3960" width="50" height="50" as="geometry" />
        </mxCell>
        <mxCell id="8ute-4yg6YOnoJJfrcmb-142" style="edgeStyle=none;rounded=0;orthogonalLoop=1;jettySize=auto;html=1;startArrow=none;startFill=0;fontSize=16;" edge="1" parent="1" source="8ute-4yg6YOnoJJfrcmb-127" target="8ute-4yg6YOnoJJfrcmb-137">
          <mxGeometry relative="1" as="geometry" />
        </mxCell>
        <mxCell id="8ute-4yg6YOnoJJfrcmb-127" value="Reporting UI" style="verticalLabelPosition=bottom;html=1;verticalAlign=top;align=center;strokeColor=none;shape=mxgraph.azure.git_repository;fontSize=16;fillColor=#999999;" vertex="1" parent="1">
          <mxGeometry x="310.98" y="4120" width="50" height="50" as="geometry" />
        </mxCell>
        <mxCell id="8ute-4yg6YOnoJJfrcmb-141" style="edgeStyle=none;rounded=0;orthogonalLoop=1;jettySize=auto;html=1;startArrow=none;startFill=0;fontSize=16;" edge="1" parent="1" source="8ute-4yg6YOnoJJfrcmb-128" target="8ute-4yg6YOnoJJfrcmb-138">
          <mxGeometry relative="1" as="geometry" />
        </mxCell>
        <mxCell id="8ute-4yg6YOnoJJfrcmb-128" value="Optimizer UI" style="verticalLabelPosition=bottom;html=1;verticalAlign=top;align=center;strokeColor=none;shape=mxgraph.azure.git_repository;fontSize=16;fillColor=#999999;" vertex="1" parent="1">
          <mxGeometry x="308.97" y="4280" width="50" height="50" as="geometry" />
        </mxCell>
        <mxCell id="8ute-4yg6YOnoJJfrcmb-129" value="" style="shape=image;html=1;verticalAlign=top;verticalLabelPosition=bottom;labelBackgroundColor=#ffffff;imageAspect=0;aspect=fixed;image=https://cdn4.iconfinder.com/data/icons/logos-brands-5/24/jenkins-128.png;fillColor=#999999;fontSize=16;" vertex="1" parent="1">
          <mxGeometry x="450" y="3910" width="70" height="70" as="geometry" />
        </mxCell>
        <mxCell id="8ute-4yg6YOnoJJfrcmb-130" value="" style="shape=image;html=1;verticalAlign=top;verticalLabelPosition=bottom;labelBackgroundColor=#ffffff;imageAspect=0;aspect=fixed;image=https://cdn4.iconfinder.com/data/icons/logos-brands-5/24/jenkins-128.png;fillColor=#999999;fontSize=16;" vertex="1" parent="1">
          <mxGeometry x="450" y="4070" width="70" height="70" as="geometry" />
        </mxCell>
        <mxCell id="8ute-4yg6YOnoJJfrcmb-131" value="" style="shape=image;html=1;verticalAlign=top;verticalLabelPosition=bottom;labelBackgroundColor=#ffffff;imageAspect=0;aspect=fixed;image=https://cdn4.iconfinder.com/data/icons/logos-brands-5/24/jenkins-128.png;fillColor=#999999;fontSize=16;" vertex="1" parent="1">
          <mxGeometry x="445" y="4230" width="70" height="70" as="geometry" />
        </mxCell>
        <mxCell id="8ute-4yg6YOnoJJfrcmb-145" style="edgeStyle=none;rounded=0;orthogonalLoop=1;jettySize=auto;html=1;startArrow=none;startFill=0;fontSize=16;" edge="1" parent="1" source="8ute-4yg6YOnoJJfrcmb-133" target="8ute-4yg6YOnoJJfrcmb-135">
          <mxGeometry relative="1" as="geometry" />
        </mxCell>
        <mxCell id="8ute-4yg6YOnoJJfrcmb-133" value="Platform UI" style="verticalLabelPosition=bottom;html=1;verticalAlign=top;align=center;strokeColor=none;shape=mxgraph.azure.git_repository;fontSize=16;fillColor=#999999;" vertex="1" parent="1">
          <mxGeometry x="312" y="3800" width="50" height="50" as="geometry" />
        </mxCell>
        <mxCell id="8ute-4yg6YOnoJJfrcmb-134" value="" style="shape=image;html=1;verticalAlign=top;verticalLabelPosition=bottom;labelBackgroundColor=#ffffff;imageAspect=0;aspect=fixed;image=https://cdn4.iconfinder.com/data/icons/logos-brands-5/24/jenkins-128.png;fillColor=#999999;fontSize=16;" vertex="1" parent="1">
          <mxGeometry x="465" y="3750" width="70" height="70" as="geometry" />
        </mxCell>
        <mxCell id="8ute-4yg6YOnoJJfrcmb-135" value="Root Config" style="pointerEvents=1;shadow=0;dashed=0;html=1;strokeColor=none;fillColor=#434445;aspect=fixed;labelPosition=center;verticalLabelPosition=bottom;verticalAlign=top;align=center;outlineConnect=0;shape=mxgraph.vvd.web_browser;" vertex="1" parent="1">
          <mxGeometry x="612.75" y="3780" width="126.77" height="90" as="geometry" />
        </mxCell>
        <mxCell id="8ute-4yg6YOnoJJfrcmb-136" value="Pacing App" style="pointerEvents=1;shadow=0;dashed=0;html=1;strokeColor=none;aspect=fixed;labelPosition=center;verticalLabelPosition=bottom;verticalAlign=top;align=center;outlineConnect=0;shape=mxgraph.vvd.web_browser;fillColor=#434445;" vertex="1" parent="1">
          <mxGeometry x="612.75" y="3940" width="126.77" height="90" as="geometry" />
        </mxCell>
        <mxCell id="8ute-4yg6YOnoJJfrcmb-137" value="Reporting App" style="pointerEvents=1;shadow=0;dashed=0;html=1;strokeColor=none;fillColor=#434445;aspect=fixed;labelPosition=center;verticalLabelPosition=bottom;verticalAlign=top;align=center;outlineConnect=0;shape=mxgraph.vvd.web_browser;" vertex="1" parent="1">
          <mxGeometry x="612.75" y="4100" width="126.77" height="90" as="geometry" />
        </mxCell>
        <mxCell id="8ute-4yg6YOnoJJfrcmb-138" value="Optimizer App" style="pointerEvents=1;shadow=0;dashed=0;html=1;strokeColor=none;aspect=fixed;labelPosition=center;verticalLabelPosition=bottom;verticalAlign=top;align=center;outlineConnect=0;shape=mxgraph.vvd.web_browser;fillColor=#434445;" vertex="1" parent="1">
          <mxGeometry x="612.75" y="4260" width="126.77" height="90" as="geometry" />
        </mxCell>
        <mxCell id="8ute-4yg6YOnoJJfrcmb-147" style="edgeStyle=none;rounded=0;orthogonalLoop=1;jettySize=auto;html=1;entryX=0;entryY=0.5;entryDx=0;entryDy=0;entryPerimeter=0;startArrow=none;startFill=0;fontSize=16;" edge="1" parent="1" source="8ute-4yg6YOnoJJfrcmb-146" target="8ute-4yg6YOnoJJfrcmb-133">
          <mxGeometry relative="1" as="geometry" />
        </mxCell>
        <mxCell id="8ute-4yg6YOnoJJfrcmb-146" value="engineers" style="outlineConnect=0;fontColor=#232F3E;gradientColor=none;fillColor=#232F3E;strokeColor=none;dashed=0;verticalLabelPosition=bottom;verticalAlign=top;align=center;html=1;fontSize=12;fontStyle=0;aspect=fixed;pointerEvents=1;shape=mxgraph.aws4.user;" vertex="1" parent="1">
          <mxGeometry x="122" y="3786" width="78" height="78" as="geometry" />
        </mxCell>
        <mxCell id="8ute-4yg6YOnoJJfrcmb-149" style="edgeStyle=none;rounded=0;orthogonalLoop=1;jettySize=auto;html=1;entryX=0;entryY=0.5;entryDx=0;entryDy=0;entryPerimeter=0;startArrow=none;startFill=0;fontSize=16;" edge="1" parent="1" source="8ute-4yg6YOnoJJfrcmb-148" target="8ute-4yg6YOnoJJfrcmb-126">
          <mxGeometry relative="1" as="geometry" />
        </mxCell>
        <mxCell id="8ute-4yg6YOnoJJfrcmb-148" value="engineers" style="outlineConnect=0;fontColor=#232F3E;gradientColor=none;fillColor=#232F3E;strokeColor=none;dashed=0;verticalLabelPosition=bottom;verticalAlign=top;align=center;html=1;fontSize=12;fontStyle=0;aspect=fixed;pointerEvents=1;shape=mxgraph.aws4.user;" vertex="1" parent="1">
          <mxGeometry x="118" y="3946" width="78" height="78" as="geometry" />
        </mxCell>
        <mxCell id="8ute-4yg6YOnoJJfrcmb-151" style="edgeStyle=none;rounded=0;orthogonalLoop=1;jettySize=auto;html=1;entryX=0;entryY=0.5;entryDx=0;entryDy=0;entryPerimeter=0;startArrow=none;startFill=0;fontSize=16;" edge="1" parent="1" source="8ute-4yg6YOnoJJfrcmb-150" target="8ute-4yg6YOnoJJfrcmb-127">
          <mxGeometry relative="1" as="geometry" />
        </mxCell>
        <mxCell id="8ute-4yg6YOnoJJfrcmb-150" value="engineers" style="outlineConnect=0;fontColor=#232F3E;gradientColor=none;fillColor=#232F3E;strokeColor=none;dashed=0;verticalLabelPosition=bottom;verticalAlign=top;align=center;html=1;fontSize=12;fontStyle=0;aspect=fixed;pointerEvents=1;shape=mxgraph.aws4.user;" vertex="1" parent="1">
          <mxGeometry x="114.5" y="4106" width="78" height="78" as="geometry" />
        </mxCell>
        <mxCell id="8ute-4yg6YOnoJJfrcmb-153" style="edgeStyle=none;rounded=0;orthogonalLoop=1;jettySize=auto;html=1;entryX=0;entryY=0.5;entryDx=0;entryDy=0;entryPerimeter=0;startArrow=none;startFill=0;fontSize=16;" edge="1" parent="1" source="8ute-4yg6YOnoJJfrcmb-152" target="8ute-4yg6YOnoJJfrcmb-128">
          <mxGeometry relative="1" as="geometry" />
        </mxCell>
        <mxCell id="8ute-4yg6YOnoJJfrcmb-152" value="engineers" style="outlineConnect=0;fontColor=#232F3E;gradientColor=none;fillColor=#232F3E;strokeColor=none;dashed=0;verticalLabelPosition=bottom;verticalAlign=top;align=center;html=1;fontSize=12;fontStyle=0;aspect=fixed;pointerEvents=1;shape=mxgraph.aws4.user;" vertex="1" parent="1">
          <mxGeometry x="109.99" y="4266" width="78" height="78" as="geometry" />
        </mxCell>
        <mxCell id="8ute-4yg6YOnoJJfrcmb-154" value="" style="endArrow=none;html=1;fontSize=16;strokeWidth=3;" edge="1" parent="1">
          <mxGeometry width="50" height="50" relative="1" as="geometry">
            <mxPoint x="80" y="3900" as="sourcePoint" />
            <mxPoint x="800" y="3900" as="targetPoint" />
          </mxGeometry>
        </mxCell>
        <mxCell id="8ute-4yg6YOnoJJfrcmb-155" value="" style="endArrow=none;html=1;fontSize=16;strokeWidth=3;" edge="1" parent="1">
          <mxGeometry width="50" height="50" relative="1" as="geometry">
            <mxPoint x="80" y="4060" as="sourcePoint" />
            <mxPoint x="800" y="4060" as="targetPoint" />
          </mxGeometry>
        </mxCell>
        <mxCell id="8ute-4yg6YOnoJJfrcmb-156" value="" style="endArrow=none;html=1;fontSize=16;strokeWidth=3;" edge="1" parent="1">
          <mxGeometry width="50" height="50" relative="1" as="geometry">
            <mxPoint x="80" y="4220" as="sourcePoint" />
            <mxPoint x="800" y="4220" as="targetPoint" />
          </mxGeometry>
        </mxCell>
      </root>
    </mxGraphModel>
  </diagram>
</mxfile>
